<svg width="668" height="214" viewBox="0 0 668 214" fill="none" xmlns="http://www.w3.org/2000/svg">
<circle cx="112" cy="107" r="100" fill="white"/>
<path d="M114.143 100.694C98.7574 97.5806 93.8094 94.3611 93.8094 89.3472C93.8094 83.5944 100.655 79.5833 112.11 79.5833C124.175 79.5833 128.648 84.0694 129.055 90.6667H144.034C143.56 81.5889 136.443 73.25 122.277 70.5583V59H101.943V70.4C88.7937 72.6167 78.22 79.2667 78.22 89.4528C78.22 101.644 91.166 107.714 110.077 111.25C127.022 114.417 130.411 119.061 130.411 123.969C130.411 127.611 127.089 133.417 112.11 133.417C98.1473 133.417 92.6572 128.561 91.9116 122.333H77C77.8134 133.892 88.9293 140.383 101.943 142.547V154H122.277V142.653C135.494 140.7 146 134.736 146 123.917C146 108.928 129.529 103.808 114.143 100.694Z" fill="#13BAFA"/>
<path d="M253.6 113.385H246.598V129H237.809V86.3438H253.658C258.697 86.3438 262.584 87.4668 265.318 89.7129C268.053 91.959 269.42 95.1328 269.42 99.2344C269.42 102.145 268.785 104.576 267.516 106.529C266.266 108.463 264.361 110.006 261.803 111.158L271.031 128.59V129H261.598L253.6 113.385ZM246.598 106.266H253.688C255.895 106.266 257.604 105.709 258.814 104.596C260.025 103.463 260.631 101.91 260.631 99.9375C260.631 97.9258 260.055 96.3438 258.902 95.1914C257.77 94.0391 256.021 93.4629 253.658 93.4629H246.598V106.266ZM290.162 129.586C285.514 129.586 281.725 128.16 278.795 125.309C275.885 122.457 274.43 118.658 274.43 113.912V113.092C274.43 109.908 275.045 107.066 276.275 104.566C277.506 102.047 279.244 100.113 281.49 98.7656C283.756 97.3984 286.334 96.7148 289.225 96.7148C293.561 96.7148 296.969 98.082 299.449 100.816C301.949 103.551 303.199 107.428 303.199 112.447V115.904H283.014C283.287 117.975 284.107 119.635 285.475 120.885C286.861 122.135 288.609 122.76 290.719 122.76C293.98 122.76 296.529 121.578 298.365 119.215L302.525 123.873C301.256 125.67 299.537 127.076 297.369 128.092C295.201 129.088 292.799 129.586 290.162 129.586ZM289.195 103.57C287.516 103.57 286.148 104.137 285.094 105.27C284.059 106.402 283.395 108.023 283.102 110.133H294.879V109.459C294.84 107.584 294.332 106.139 293.355 105.123C292.379 104.088 290.992 103.57 289.195 103.57ZM326.402 129C326.012 128.238 325.729 127.291 325.553 126.158C323.502 128.443 320.836 129.586 317.555 129.586C314.449 129.586 311.871 128.688 309.82 126.891C307.789 125.094 306.773 122.828 306.773 120.094C306.773 116.734 308.014 114.156 310.494 112.359C312.994 110.562 316.598 109.654 321.305 109.635H325.201V107.818C325.201 106.354 324.82 105.182 324.059 104.303C323.316 103.424 322.135 102.984 320.514 102.984C319.088 102.984 317.965 103.326 317.145 104.01C316.344 104.693 315.943 105.631 315.943 106.822H307.477C307.477 104.986 308.043 103.287 309.176 101.725C310.309 100.162 311.91 98.9414 313.98 98.0625C316.051 97.1641 318.375 96.7148 320.953 96.7148C324.859 96.7148 327.955 97.7012 330.24 99.6738C332.545 101.627 333.697 104.381 333.697 107.936V121.676C333.717 124.684 334.137 126.959 334.957 128.502V129H326.402ZM319.4 123.111C320.65 123.111 321.803 122.838 322.857 122.291C323.912 121.725 324.693 120.973 325.201 120.035V114.586H322.037C317.799 114.586 315.543 116.051 315.27 118.98L315.24 119.479C315.24 120.533 315.611 121.402 316.354 122.086C317.096 122.77 318.111 123.111 319.4 123.111ZM353.385 122.76C354.947 122.76 356.217 122.33 357.193 121.471C358.17 120.611 358.678 119.469 358.717 118.043H366.656C366.637 120.191 366.051 122.164 364.898 123.961C363.746 125.738 362.164 127.125 360.152 128.121C358.16 129.098 355.953 129.586 353.531 129.586C349 129.586 345.426 128.15 342.809 125.279C340.191 122.389 338.883 118.404 338.883 113.326V112.77C338.883 107.887 340.182 103.99 342.779 101.08C345.377 98.1699 348.941 96.7148 353.473 96.7148C357.438 96.7148 360.611 97.8477 362.994 100.113C365.396 102.359 366.617 105.357 366.656 109.107H358.717C358.678 107.467 358.17 106.139 357.193 105.123C356.217 104.088 354.928 103.57 353.326 103.57C351.354 103.57 349.859 104.293 348.844 105.738C347.848 107.164 347.35 109.488 347.35 112.711V113.59C347.35 116.852 347.848 119.195 348.844 120.621C349.84 122.047 351.354 122.76 353.385 122.76ZM381.627 89.5078V97.3008H387.047V103.512H381.627V119.332C381.627 120.504 381.852 121.344 382.301 121.852C382.75 122.359 383.609 122.613 384.879 122.613C385.816 122.613 386.646 122.545 387.369 122.408V128.824C385.709 129.332 384 129.586 382.242 129.586C376.305 129.586 373.277 126.588 373.16 120.592V103.512H368.531V97.3008H373.16V89.5078H381.627ZM432.926 111.568H416.051V129H407.262V86.3438H435.035V93.4629H416.051V104.479H432.926V111.568ZM448.512 129H440.016V97.3008H448.512V129ZM439.518 89.0977C439.518 87.8281 439.938 86.7832 440.777 85.9629C441.637 85.1426 442.799 84.7324 444.264 84.7324C445.709 84.7324 446.861 85.1426 447.721 85.9629C448.58 86.7832 449.01 87.8281 449.01 89.0977C449.01 90.3867 448.57 91.4414 447.691 92.2617C446.832 93.082 445.689 93.4922 444.264 93.4922C442.838 93.4922 441.686 93.082 440.807 92.2617C439.947 91.4414 439.518 90.3867 439.518 89.0977ZM463.307 97.3008L463.57 100.963C465.836 98.1309 468.873 96.7148 472.682 96.7148C476.041 96.7148 478.541 97.7012 480.182 99.6738C481.822 101.646 482.662 104.596 482.701 108.521V129H474.234V108.727C474.234 106.93 473.844 105.631 473.062 104.83C472.281 104.01 470.982 103.6 469.166 103.6C466.783 103.6 464.996 104.615 463.805 106.646V129H455.338V97.3008H463.307ZM507.516 129C507.125 128.238 506.842 127.291 506.666 126.158C504.615 128.443 501.949 129.586 498.668 129.586C495.562 129.586 492.984 128.688 490.934 126.891C488.902 125.094 487.887 122.828 487.887 120.094C487.887 116.734 489.127 114.156 491.607 112.359C494.107 110.562 497.711 109.654 502.418 109.635H506.314V107.818C506.314 106.354 505.934 105.182 505.172 104.303C504.43 103.424 503.248 102.984 501.627 102.984C500.201 102.984 499.078 103.326 498.258 104.01C497.457 104.693 497.057 105.631 497.057 106.822H488.59C488.59 104.986 489.156 103.287 490.289 101.725C491.422 100.162 493.023 98.9414 495.094 98.0625C497.164 97.1641 499.488 96.7148 502.066 96.7148C505.973 96.7148 509.068 97.7012 511.354 99.6738C513.658 101.627 514.811 104.381 514.811 107.936V121.676C514.83 124.684 515.25 126.959 516.07 128.502V129H507.516ZM500.514 123.111C501.764 123.111 502.916 122.838 503.971 122.291C505.025 121.725 505.807 120.973 506.314 120.035V114.586H503.15C498.912 114.586 496.656 116.051 496.383 118.98L496.354 119.479C496.354 120.533 496.725 121.402 497.467 122.086C498.209 122.77 499.225 123.111 500.514 123.111ZM529.107 97.3008L529.371 100.963C531.637 98.1309 534.674 96.7148 538.482 96.7148C541.842 96.7148 544.342 97.7012 545.982 99.6738C547.623 101.646 548.463 104.596 548.502 108.521V129H540.035V108.727C540.035 106.93 539.645 105.631 538.863 104.83C538.082 104.01 536.783 103.6 534.967 103.6C532.584 103.6 530.797 104.615 529.605 106.646V129H521.139V97.3008H529.107ZM568.131 122.76C569.693 122.76 570.963 122.33 571.939 121.471C572.916 120.611 573.424 119.469 573.463 118.043H581.402C581.383 120.191 580.797 122.164 579.645 123.961C578.492 125.738 576.91 127.125 574.898 128.121C572.906 129.098 570.699 129.586 568.277 129.586C563.746 129.586 560.172 128.15 557.555 125.279C554.938 122.389 553.629 118.404 553.629 113.326V112.77C553.629 107.887 554.928 103.99 557.525 101.08C560.123 98.1699 563.688 96.7148 568.219 96.7148C572.184 96.7148 575.357 97.8477 577.74 100.113C580.143 102.359 581.363 105.357 581.402 109.107H573.463C573.424 107.467 572.916 106.139 571.939 105.123C570.963 104.088 569.674 103.57 568.072 103.57C566.1 103.57 564.605 104.293 563.59 105.738C562.594 107.164 562.096 109.488 562.096 112.711V113.59C562.096 116.852 562.594 119.195 563.59 120.621C564.586 122.047 566.1 122.76 568.131 122.76ZM571.207 128.824L570.885 130.523C573.814 131.051 575.279 132.74 575.279 135.592C575.279 137.74 574.381 139.439 572.584 140.689C570.807 141.939 568.297 142.564 565.055 142.564L564.85 137.672C567.037 137.672 568.131 136.881 568.131 135.299C568.131 134.479 567.799 133.912 567.135 133.6C566.49 133.307 565.436 133.111 563.971 133.014L564.879 128.824H571.207ZM604.605 129C604.215 128.238 603.932 127.291 603.756 126.158C601.705 128.443 599.039 129.586 595.758 129.586C592.652 129.586 590.074 128.688 588.023 126.891C585.992 125.094 584.977 122.828 584.977 120.094C584.977 116.734 586.217 114.156 588.697 112.359C591.197 110.562 594.801 109.654 599.508 109.635H603.404V107.818C603.404 106.354 603.023 105.182 602.262 104.303C601.52 103.424 600.338 102.984 598.717 102.984C597.291 102.984 596.168 103.326 595.348 104.01C594.547 104.693 594.146 105.631 594.146 106.822H585.68C585.68 104.986 586.246 103.287 587.379 101.725C588.512 100.162 590.113 98.9414 592.184 98.0625C594.254 97.1641 596.578 96.7148 599.156 96.7148C603.062 96.7148 606.158 97.7012 608.443 99.6738C610.748 101.627 611.9 104.381 611.9 107.936V121.676C611.92 124.684 612.34 126.959 613.16 128.502V129H604.605ZM597.604 123.111C598.854 123.111 600.006 122.838 601.061 122.291C602.115 121.725 602.896 120.973 603.404 120.035V114.586H600.24C596.002 114.586 593.746 116.051 593.473 118.98L593.443 119.479C593.443 120.533 593.814 121.402 594.557 122.086C595.299 122.77 596.314 123.111 597.604 123.111ZM635.572 120.24C635.572 119.205 635.055 118.395 634.02 117.809C633.004 117.203 631.363 116.666 629.098 116.197C621.559 114.615 617.789 111.412 617.789 106.588C617.789 103.775 618.951 101.432 621.275 99.5566C623.619 97.6621 626.676 96.7148 630.445 96.7148C634.469 96.7148 637.682 97.6621 640.084 99.5566C642.506 101.451 643.717 103.912 643.717 106.939H635.25C635.25 105.729 634.859 104.732 634.078 103.951C633.297 103.15 632.076 102.75 630.416 102.75C628.99 102.75 627.887 103.072 627.105 103.717C626.324 104.361 625.934 105.182 625.934 106.178C625.934 107.115 626.373 107.877 627.252 108.463C628.15 109.029 629.654 109.527 631.764 109.957C633.873 110.367 635.65 110.836 637.096 111.363C641.568 113.004 643.805 115.846 643.805 119.889C643.805 122.779 642.564 125.123 640.084 126.92C637.604 128.697 634.4 129.586 630.475 129.586C627.818 129.586 625.455 129.117 623.385 128.18C621.334 127.223 619.723 125.924 618.551 124.283C617.379 122.623 616.793 120.836 616.793 118.922H624.82C624.898 120.426 625.455 121.578 626.49 122.379C627.525 123.18 628.912 123.58 630.65 123.58C632.271 123.58 633.492 123.277 634.312 122.672C635.152 122.047 635.572 121.236 635.572 120.24Z" fill="white"/>
</svg>
